<svg id="Layer_1" data-name="Layer 1" xmlns="http://www.w3.org/2000/svg" width="16" height="16" viewBox="0 0 16 16"><title>logo-16</title><path d="M0,11.3a2.5,2.5,0,0,0,1.3,1.8,2.1,2.1,0,0,0,2.3-.4,3.1,3.1,0,0,1,.3-.5,1.6,1.6,0,0,1,1-.5,1.6,1.6,0,0,1,1.2.4c.4.4.4,1,.4,2.2s0,.7.1.9a2,2,0,0,0,2.1.8c1.8-.5,2.3-4.2,2.2-6.3a4.3,4.3,0,0,0-.5-1.9,4.4,4.4,0,0,0-2.7-2A4.9,4.9,0,0,0,4.8,6C2.4,6.9-.3,9.2,0,11.3Z" fill="#231f20"/><path d="M3.9.9A2.6,2.6,0,0,0,2,2.3a2.5,2.5,0,0,0-.4,1.6,2.2,2.2,0,0,0,.9,1.5c.9.5,2-.2,2.5-.8s1.2-2,.6-2.9A1.9,1.9,0,0,0,3.9.9Z" fill="#231f20"/><path d="M8.9.1A2.6,2.6,0,0,0,7,1.5a2.5,2.5,0,0,0-.4,1.6,2.2,2.2,0,0,0,.9,1.5c.9.5,2-.2,2.5-.8s1.2-2,.6-2.9A1.9,1.9,0,0,0,8.9.1Z" fill="#231f20"/><path d="M14,8a2.6,2.6,0,0,0-1.8,1.4,2.5,2.5,0,0,0-.4,1.6,2.2,2.2,0,0,0,.9,1.5c.9.5,2-.2,2.5-.8s1.2-2,.6-2.9A1.9,1.9,0,0,0,14,8Z" fill="#231f20"/><path d="M13,7.5a2.6,2.6,0,0,0,1.8-1.4,2.5,2.5,0,0,0,.4-1.6A2.2,2.2,0,0,0,14.4,3c-.9-.5-2,.2-2.5.8s-1.2,2-.6,2.9A1.9,1.9,0,0,0,13,7.5Z" fill="#231f20"/></svg>