<svg id="Layer_1" data-name="Layer 1" xmlns="http://www.w3.org/2000/svg" width="64" height="64" viewBox="0 0 64 64"><title>logo-64</title><path d="M10.8,29.8a6.5,6.5,0,0,0,3.5,4.8c2.1.9,5.2.5,6.2-1a8.3,8.3,0,0,1,.8-1.4A4.3,4.3,0,0,1,24,30.8a4.2,4.2,0,0,1,3.3,1c1.1,1.1,1.1,2.7,1.1,5.9,0,1.6-.1,1.8.1,2.3s3.6,2.6,5.7,2.1C39,40.9,40.3,30.9,40,25.3a11.4,11.4,0,0,0-1.3-5.1,11.8,11.8,0,0,0-7.1-5.4,13.1,13.1,0,0,0-8.2.8C17.2,18,9.9,24.1,10.8,29.8Z" fill="#231f20"/><path d="M21,2c-3,.3-4.6,3.2-4.9,3.8a6.7,6.7,0,0,0-1,4.2c0,.2.4,2.9,2.3,4s5.3-.5,6.7-2.2S27.2,6.5,25.7,4,21.2,2,21,2Z" fill="#231f20"/><path d="M34.3,0c-3,.3-4.6,3.2-4.9,3.8a6.7,6.7,0,0,0-1,4.2c0,.2.4,2.9,2.3,4s5.3-.5,6.7-2.2S40.6,4.5,39.1,2,34.6,0,34.3,0Z" fill="#231f20"/><path d="M47.9,20.9c-3,.3-4.6,3.2-4.9,3.8a6.7,6.7,0,0,0-1,4.2c0,.2.4,2.9,2.3,4s5.3-.5,6.7-2.2,3.1-5.3,1.6-7.8S48.2,20.9,47.9,20.9Z" fill="#231f20"/><path d="M45.4,19.7c3-.3,4.6-3.2,4.9-3.8a6.7,6.7,0,0,0,1-4.2c0-.2-.4-2.9-2.3-4s-5.3.5-6.7,2.2-3.1,5.3-1.6,7.8S45.1,19.7,45.4,19.7Z" fill="#231f20"/><path d="M11.6,44.5l.6.2a.8.8,0,0,1,.2.6v7.5h3.7l.6.2a.8.8,0,0,1,0,1.2l-.6.2H11.6l-.6-.2a.8.8,0,0,1-.2-.6V45.3a.8.8,0,0,1,.2-.6Z" fill="#231f20"/><path d="M22.4,54.5a5,5,0,1,1,3.5-8.6,5,5,0,0,1-3.5,8.6Zm0-8.4a3.4,3.4,0,1,0,2.4,1A3.2,3.2,0,0,0,22.4,46.1Z" fill="#231f20"/><path d="M36.3,44.7a.8.8,0,0,1,.1,1.2l-3,3.8v4a.8.8,0,0,1-.2.6l-.6.2-.6-.2a.8.8,0,0,1-.2-.6v-4l-3-3.8a.8.8,0,0,1,.1-1.2l.6-.2.6.3L32.6,48l2.6-3.2.5-.3Z" fill="#231f20"/><path d="M37.3,54.4a.8.8,0,0,1-.4-1.1l.9-2.1h0L40.3,45h1.5l2.6,6.2h0l.9,2.1a.8.8,0,0,1-.4,1.1h-.3a.8.8,0,0,1-.8-.5L43,52.3H39L38.3,54a.8.8,0,0,1-.8.5h-.3Zm5.1-3.7L41,47.5l-1.3,3.2Z" fill="#231f20"/><path d="M47.9,44.5l.6.2a.8.8,0,0,1,.2.6v7.5h3.7l.6.2a.8.8,0,0,1,0,1.2l-.6.2H47.9l-.6-.2a.8.8,0,0,1-.2-.6V45.3a.8.8,0,0,1,.2-.6Z" fill="#231f20"/><path d="M16.3,58.2a2.2,2.2,0,0,1-.5,1.4,2.4,2.4,0,0,1-1.2.9L15.9,63a.7.7,0,0,1-.3.9h-.3a.6.6,0,0,1-.6-.4l-1.5-3.1H12.1v2.7a.6.6,0,0,1-.2.5l-.5.2-.5-.2a.7.7,0,0,1-.2-.5V56.5a.6.6,0,0,1,.2-.5l.5-.2h2.4a2.5,2.5,0,0,1,1.8.7A2.2,2.2,0,0,1,16.3,58.2Zm-2.5,1a1.3,1.3,0,0,0,.8-.3.9.9,0,0,0,0-1.4,1.3,1.3,0,0,0-.8-.3H12.1v2.1Z" fill="#231f20"/><path d="M22.7,62.7l.5.2a.7.7,0,0,1,.2.5.6.6,0,0,1-.2.5l-.5.2H18.6l-.5-.2a.6.6,0,0,1-.2-.5V56.5a.6.6,0,0,1,.2-.5l.5-.2h4.1l.5.2a.7.7,0,0,1,.2.5.6.6,0,0,1-.2.5l-.5.2H19.3v2.1h2.5l.5.2a.7.7,0,0,1,0,1l-.5.2H19.3v2.1Z" fill="#231f20"/><path d="M30.3,61.6a2.4,2.4,0,0,1-.8,1.7,2.6,2.6,0,0,1-1.8.7,3.4,3.4,0,0,1-1.7-.4,2.2,2.2,0,0,1-1.1-1.4.7.7,0,0,1,.1-.5l.4-.3h.5a.6.6,0,0,1,.3.4.9.9,0,0,0,.6.6l.9.2a1.3,1.3,0,0,0,.9-.3,1.1,1.1,0,0,0,.4-.8.7.7,0,0,0-.2-.5,1.6,1.6,0,0,0-1.2-.4h0a2.9,2.9,0,0,1-2.1-.8,2,2,0,0,1-.6-1.5,2.4,2.4,0,0,1,.8-1.7,2.6,2.6,0,0,1,1.8-.7,3.4,3.4,0,0,1,1.7.4,2.2,2.2,0,0,1,1.1,1.4.6.6,0,0,1-.1.5l-.4.3h-.5a.6.6,0,0,1-.3-.4.9.9,0,0,0-.6-.6l-.9-.2a1.4,1.4,0,0,0-.9.3,1.1,1.1,0,0,0-.4.8.7.7,0,0,0,.2.5,1.6,1.6,0,0,0,1.2.4h0a2.9,2.9,0,0,1,2.1.8A2,2,0,0,1,30.3,61.6Z" fill="#231f20"/><path d="M35.6,64a4.1,4.1,0,0,1,0-8.1,4,4,0,0,1,2.5.8.7.7,0,0,1,.3.4.7.7,0,0,1-.1.5l-.4.3h-.5a2.7,2.7,0,1,0,.2,4.2l.5-.2.5.2a.7.7,0,0,1,0,.9A3.9,3.9,0,0,1,35.6,64Z" fill="#231f20"/><path d="M45.3,55.8l.5.2a.6.6,0,0,1,.2.5v4.6a2.9,2.9,0,1,1-5.8,0V56.5a.6.6,0,0,1,.2-.5l.5-.2.5.2a.6.6,0,0,1,.2.5v4.6a1.6,1.6,0,1,0,3.2,0V56.5a.6.6,0,0,1,.2-.5Z" fill="#231f20"/><path d="M52.2,62.7l.5.2a.7.7,0,0,1,.2.5.6.6,0,0,1-.2.5l-.5.2H48.1l-.5-.2a.6.6,0,0,1-.2-.5V56.5a.6.6,0,0,1,.2-.5l.5-.2h4.1l.5.2a.7.7,0,0,1,.2.5.6.6,0,0,1-.2.5l-.5.2H48.8v2.1h2.5l.5.2a.7.7,0,0,1,0,1l-.5.2H48.8v2.1Z" fill="#231f20"/></svg>