<svg xmlns="http://www.w3.org/2000/svg" id="Layer_1" width="32" height="32" data-name="Layer 1" viewBox="0 0 32 32"><path fill="#231f20" d="M.1 22.5a4.9 4.9 0 0 0 2.7 3.6c1.6.7 3.9.4 4.7-.7a6.2 6.2 0 0 1 .5-1.1 3.2 3.2 0 0 1 2-1 3.1 3.1 0 0 1 2.4.7c.8.8.8 2 .9 4.5s-.1 1.3.1 1.7 2.7 2 4.3 1.6c3.6-.9 4.6-8.5 4.4-12.7a8.6 8.6 0 0 0-1-3.8 8.8 8.8 0 0 0-5.3-4 9.9 9.9 0 0 0-6.2.6C4.9 13.6-.7 18.2.1 22.5zM7.7 1.6C5.4 1.9 4.3 4 4 4.5a5.1 5.1 0 0 0-.7 3.1 4.3 4.3 0 0 0 1.7 3c1.8 1 4-.4 5.1-1.6s2.4-4 1.2-5.9-3.4-1.5-3.6-1.5zm10-1.5C15.5.3 14.3 2.5 14 3a5.1 5.1 0 0 0-.7 3.1 4.3 4.3 0 0 0 1.7 3c1.8 1 4-.4 5.1-1.6s2.4-4 1.2-5.9S17.9.1 17.7.1zM28 15.8c-2.3.2-3.5 2.4-3.7 2.9a5.1 5.1 0 0 0-.7 3.1 4.3 4.3 0 0 0 1.7 3c1.8 1 4-.4 5.1-1.6s2.4-4 1.2-5.9-3.4-1.5-3.6-1.5zm-1.9-.9c2.3-.2 3.5-2.4 3.7-2.9a5.1 5.1 0 0 0 .7-3.1 4.3 4.3 0 0 0-1.7-3c-1.8-1-4 .4-5.1 1.6s-2.4 4-1.2 5.9 3.4 1.5 3.6 1.5z"/></svg>